<svg width="46" height="46" viewBox="0 0 46 46" fill="none" xmlns="http://www.w3.org/2000/svg">
<path d="M23.0002 26.8333C27.2283 26.8333 30.6668 23.3948 30.6668 19.1667C30.6668 14.9385 27.2283 11.5 23.0002 11.5C18.772 11.5 15.3335 14.9385 15.3335 19.1667C15.3335 23.3948 18.772 26.8333 23.0002 26.8333ZM23.0002 15.3333C25.1142 15.3333 26.8335 17.0526 26.8335 19.1667C26.8335 21.2807 25.1142 23 23.0002 23C20.8861 23 19.1668 21.2807 19.1668 19.1667C19.1668 17.0526 20.8861 15.3333 23.0002 15.3333Z" fill="black"/>
<path d="M21.8883 41.8102C22.2127 42.0419 22.6014 42.1664 23 42.1664C23.3986 42.1664 23.7873 42.0419 24.1117 41.8102C24.6943 41.3981 38.3889 31.51 38.3333 19.1667C38.3333 10.7123 31.4544 3.83337 23 3.83337C14.5456 3.83337 7.66667 10.7123 7.66667 19.1571C7.61109 31.51 21.3057 41.3981 21.8883 41.8102ZM23 7.66671C29.3423 7.66671 34.5 12.8245 34.5 19.1763C34.5403 27.6825 26.0897 35.3204 23 37.8255C19.9123 35.3185 11.4598 27.6786 11.5 19.1667C11.5 12.8245 16.6578 7.66671 23 7.66671Z" fill="white"/>
</svg>
